<?xml version="1.0" encoding="utf-8"?>
<!-- Generator: Adobe Illustrator 26.3.1, SVG Export Plug-In . SVG Version: 6.00 Build 0)  -->
<svg version="1.1" id="レイヤー_1" xmlns="http://www.w3.org/2000/svg" xmlns:xlink="http://www.w3.org/1999/xlink" x="0px"
	 y="0px" viewBox="0 0 64 64" style="enable-background:new 0 0 64 64;" xml:space="preserve">
<style type="text/css">
	.st0{fill:none;}
</style>
<path d="M54.2,2.4H9.8c-4.1,0-7.4,3.3-7.4,7.4v44.4c0,4.1,3.3,7.4,7.4,7.4h44.4c4.1,0,7.4-3.3,7.4-7.4V9.8
	C61.6,5.7,58.3,2.4,54.2,2.4z M6.1,16.7c0-1.7,1.7-3.2,3.7-3.2h44.4c2,0,3.7,1.4,3.7,3.2v38c0,1.7-1.7,3.2-3.7,3.2H9.8
	c-2,0-3.7-1.4-3.7-3.2V16.7z"/>
<path d="M26.5,28.3c2,0,3.7-1.7,3.7-3.7s-1.7-3.7-3.7-3.7s-3.7,1.7-3.7,3.7S24.4,28.3,26.5,28.3z M37.5,28.3c2,0,3.7-1.7,3.7-3.7
	s-1.7-3.7-3.7-3.7s-3.7,1.7-3.7,3.7S35.5,28.3,37.5,28.3z M48.6,28.3c2,0,3.7-1.7,3.7-3.7s-1.7-3.7-3.7-3.7c-2,0-3.7,1.7-3.7,3.7
	S46.6,28.3,48.6,28.3z M15.4,39.4c2,0,3.7-1.7,3.7-3.7S17.4,32,15.4,32s-3.7,1.7-3.7,3.7S13.3,39.4,15.4,39.4z M26.5,39.4
	c2,0,3.7-1.7,3.7-3.7S28.5,32,26.5,32s-3.7,1.7-3.7,3.7S24.4,39.4,26.5,39.4z M37.5,39.4c2,0,3.7-1.7,3.7-3.7S39.6,32,37.5,32
	s-3.7,1.7-3.7,3.7S35.5,39.4,37.5,39.4z M48.6,39.4c2,0,3.7-1.7,3.7-3.7S50.7,32,48.6,32c-2,0-3.7,1.7-3.7,3.7S46.6,39.4,48.6,39.4z
	 M15.4,50.5c2,0,3.7-1.7,3.7-3.7c0-2-1.7-3.7-3.7-3.7s-3.7,1.7-3.7,3.7C11.7,48.8,13.3,50.5,15.4,50.5z M26.5,50.5
	c2,0,3.7-1.7,3.7-3.7c0-2-1.7-3.7-3.7-3.7s-3.7,1.7-3.7,3.7C22.8,48.8,24.4,50.5,26.5,50.5z M37.5,50.5c2,0,3.7-1.7,3.7-3.7
	c0-2-1.7-3.7-3.7-3.7s-3.7,1.7-3.7,3.7C33.8,48.8,35.5,50.5,37.5,50.5z"/>
<rect class="st0" width="64" height="64"/>
</svg>
